<mxfile host="65bd71144e">
    <diagram id="RCgZzsx_JEoJUs1FAztN" name="第 1 页">
        <mxGraphModel dx="754" dy="628" grid="1" gridSize="10" guides="1" tooltips="1" connect="1" arrows="1" fold="1" page="1" pageScale="1" pageWidth="827" pageHeight="1169" math="0" shadow="0">
            <root>
                <mxCell id="0"/>
                <mxCell id="1" parent="0"/>
                <mxCell id="10" style="edgeStyle=none;html=1;exitX=0;exitY=1;exitDx=0;exitDy=0;entryX=0.25;entryY=0;entryDx=0;entryDy=0;" edge="1" parent="1" source="2" target="4">
                    <mxGeometry relative="1" as="geometry"/>
                </mxCell>
                <mxCell id="12" value="current" style="edgeLabel;html=1;align=center;verticalAlign=middle;resizable=0;points=[];" vertex="1" connectable="0" parent="10">
                    <mxGeometry x="-0.109" relative="1" as="geometry">
                        <mxPoint as="offset"/>
                    </mxGeometry>
                </mxCell>
                <mxCell id="15" value="comtainer" style="edgeStyle=none;html=1;exitX=0;exitY=0.5;exitDx=0;exitDy=0;" edge="1" parent="1" source="2" target="14">
                    <mxGeometry relative="1" as="geometry"/>
                </mxCell>
                <mxCell id="2" value="root" style="ellipse;whiteSpace=wrap;html=1;" vertex="1" parent="1">
                    <mxGeometry x="230" y="50" width="80" height="80" as="geometry"/>
                </mxCell>
                <mxCell id="7" style="edgeStyle=none;html=1;exitX=1;exitY=0.75;exitDx=0;exitDy=0;entryX=0;entryY=0.75;entryDx=0;entryDy=0;" edge="1" parent="1" source="4" target="5">
                    <mxGeometry relative="1" as="geometry"/>
                </mxCell>
                <mxCell id="9" value="alternate" style="edgeLabel;html=1;align=center;verticalAlign=middle;resizable=0;points=[];" vertex="1" connectable="0" parent="7">
                    <mxGeometry x="-0.1619" y="4" relative="1" as="geometry">
                        <mxPoint as="offset"/>
                    </mxGeometry>
                </mxCell>
                <mxCell id="11" style="edgeStyle=none;html=1;exitX=0.75;exitY=0;exitDx=0;exitDy=0;entryX=1;entryY=1;entryDx=0;entryDy=0;" edge="1" parent="1" source="4" target="2">
                    <mxGeometry relative="1" as="geometry"/>
                </mxCell>
                <mxCell id="13" value="stateNode" style="edgeLabel;html=1;align=center;verticalAlign=middle;resizable=0;points=[];" vertex="1" connectable="0" parent="11">
                    <mxGeometry x="0.0335" y="2" relative="1" as="geometry">
                        <mxPoint as="offset"/>
                    </mxGeometry>
                </mxCell>
                <mxCell id="4" value="rootFiber" style="rounded=1;whiteSpace=wrap;html=1;" vertex="1" parent="1">
                    <mxGeometry x="210" y="170" width="120" height="60" as="geometry"/>
                </mxCell>
                <mxCell id="8" value="alternate" style="edgeStyle=none;html=1;exitX=0;exitY=0.25;exitDx=0;exitDy=0;entryX=1;entryY=0.25;entryDx=0;entryDy=0;" edge="1" parent="1" source="5" target="4">
                    <mxGeometry relative="1" as="geometry"/>
                </mxCell>
                <mxCell id="18" style="edgeStyle=none;html=1;exitX=0.25;exitY=1;exitDx=0;exitDy=0;entryX=0.25;entryY=0;entryDx=0;entryDy=0;" edge="1" parent="1" source="5" target="16">
                    <mxGeometry relative="1" as="geometry"/>
                </mxCell>
                <mxCell id="24" value="child" style="edgeLabel;html=1;align=center;verticalAlign=middle;resizable=0;points=[];" vertex="1" connectable="0" parent="18">
                    <mxGeometry x="-0.1999" y="-1" relative="1" as="geometry">
                        <mxPoint as="offset"/>
                    </mxGeometry>
                </mxCell>
                <mxCell id="5" value="wip" style="rounded=1;whiteSpace=wrap;html=1;" vertex="1" parent="1">
                    <mxGeometry x="414" y="170" width="120" height="60" as="geometry"/>
                </mxCell>
                <mxCell id="14" value="dom（#root）" style="rounded=1;whiteSpace=wrap;html=1;" vertex="1" parent="1">
                    <mxGeometry x="30" y="60" width="120" height="60" as="geometry"/>
                </mxCell>
                <mxCell id="19" value="child" style="edgeStyle=none;html=1;exitX=0.25;exitY=1;exitDx=0;exitDy=0;entryX=0.25;entryY=0;entryDx=0;entryDy=0;" edge="1" parent="1" source="16" target="17">
                    <mxGeometry relative="1" as="geometry">
                        <mxPoint x="444" y="370" as="targetPoint"/>
                    </mxGeometry>
                </mxCell>
                <mxCell id="16" value="Finer App" style="rounded=1;whiteSpace=wrap;html=1;" vertex="1" parent="1">
                    <mxGeometry x="414" y="280" width="120" height="60" as="geometry"/>
                </mxCell>
                <mxCell id="23" style="edgeStyle=none;html=1;exitX=0.25;exitY=1;exitDx=0;exitDy=0;entryX=0.25;entryY=0;entryDx=0;entryDy=0;" edge="1" parent="1" source="17" target="20">
                    <mxGeometry relative="1" as="geometry"/>
                </mxCell>
                <mxCell id="25" value="child" style="edgeLabel;html=1;align=center;verticalAlign=middle;resizable=0;points=[];" vertex="1" connectable="0" parent="23">
                    <mxGeometry x="-0.1499" y="-2" relative="1" as="geometry">
                        <mxPoint as="offset"/>
                    </mxGeometry>
                </mxCell>
                <mxCell id="17" value="fiber div" style="rounded=1;whiteSpace=wrap;html=1;" vertex="1" parent="1">
                    <mxGeometry x="414" y="380" width="120" height="60" as="geometry"/>
                </mxCell>
                <mxCell id="26" value="return" style="edgeStyle=none;html=1;exitX=0.75;exitY=0;exitDx=0;exitDy=0;entryX=0.75;entryY=1;entryDx=0;entryDy=0;" edge="1" parent="1" source="20" target="17">
                    <mxGeometry relative="1" as="geometry">
                        <mxPoint x="504" y="450" as="targetPoint"/>
                    </mxGeometry>
                </mxCell>
                <mxCell id="36" value="sibling" style="edgeStyle=none;html=1;exitX=1;exitY=0.25;exitDx=0;exitDy=0;entryX=0;entryY=0.25;entryDx=0;entryDy=0;" edge="1" parent="1" source="20" target="21">
                    <mxGeometry relative="1" as="geometry"/>
                </mxCell>
                <mxCell id="20" value="span" style="rounded=1;whiteSpace=wrap;html=1;" vertex="1" parent="1">
                    <mxGeometry x="415" y="490" width="120" height="60" as="geometry"/>
                </mxCell>
                <mxCell id="34" value="return" style="edgeStyle=none;html=1;exitX=0.25;exitY=0;exitDx=0;exitDy=0;startArrow=none;" edge="1" parent="1" source="35">
                    <mxGeometry relative="1" as="geometry">
                        <mxPoint x="540" y="410" as="targetPoint"/>
                    </mxGeometry>
                </mxCell>
                <mxCell id="21" value="p" style="rounded=1;whiteSpace=wrap;html=1;" vertex="1" parent="1">
                    <mxGeometry x="600" y="490" width="90" height="60" as="geometry"/>
                </mxCell>
                <mxCell id="43" style="edgeStyle=none;html=1;entryX=1;entryY=0.25;entryDx=0;entryDy=0;" edge="1" parent="1" source="22" target="17">
                    <mxGeometry relative="1" as="geometry"/>
                </mxCell>
                <mxCell id="56" value="return" style="edgeLabel;html=1;align=center;verticalAlign=middle;resizable=0;points=[];" vertex="1" connectable="0" parent="43">
                    <mxGeometry x="-0.3806" y="-1" relative="1" as="geometry">
                        <mxPoint as="offset"/>
                    </mxGeometry>
                </mxCell>
                <mxCell id="22" value="ul" style="rounded=1;whiteSpace=wrap;html=1;" vertex="1" parent="1">
                    <mxGeometry x="760" y="485" width="110" height="50" as="geometry"/>
                </mxCell>
                <mxCell id="27" value="1" style="text;html=1;align=center;verticalAlign=middle;resizable=0;points=[];autosize=1;strokeColor=#6F0000;fillColor=#a20025;shadow=1;fontColor=#ffffff;" vertex="1" parent="1">
                    <mxGeometry x="390" y="240" width="30" height="30" as="geometry"/>
                </mxCell>
                <mxCell id="28" value="2" style="text;html=1;align=center;verticalAlign=middle;resizable=0;points=[];autosize=1;strokeColor=#6F0000;fillColor=#a20025;fontColor=#ffffff;" vertex="1" parent="1">
                    <mxGeometry x="385" y="345" width="30" height="30" as="geometry"/>
                </mxCell>
                <mxCell id="29" value="3" style="text;html=1;align=center;verticalAlign=middle;resizable=0;points=[];autosize=1;strokeColor=#6F0000;fillColor=#a20025;fontColor=#ffffff;" vertex="1" parent="1">
                    <mxGeometry x="395" y="445" width="30" height="30" as="geometry"/>
                </mxCell>
                <mxCell id="30" value="4" style="text;html=1;align=center;verticalAlign=middle;resizable=0;points=[];autosize=1;strokeColor=#6F0000;fillColor=#a20025;fontColor=#ffffff;" vertex="1" parent="1">
                    <mxGeometry x="514" y="445" width="30" height="30" as="geometry"/>
                </mxCell>
                <mxCell id="32" style="edgeStyle=none;html=1;" edge="1" parent="1" source="31">
                    <mxGeometry relative="1" as="geometry">
                        <mxPoint x="410" y="420" as="targetPoint"/>
                    </mxGeometry>
                </mxCell>
                <mxCell id="58" value="child" style="edgeStyle=none;html=1;exitX=0.5;exitY=1;exitDx=0;exitDy=0;" edge="1" parent="1" source="31">
                    <mxGeometry relative="1" as="geometry">
                        <mxPoint x="400" y="510" as="targetPoint"/>
                    </mxGeometry>
                </mxCell>
                <mxCell id="31" value="workinprogress" style="ellipse;whiteSpace=wrap;html=1;shadow=1;" vertex="1" parent="1">
                    <mxGeometry x="200" y="420" width="110" height="70" as="geometry"/>
                </mxCell>
                <mxCell id="33" value="flags = 1" style="text;html=1;align=center;verticalAlign=middle;resizable=0;points=[];autosize=1;strokeColor=none;fillColor=none;" vertex="1" parent="1">
                    <mxGeometry x="414" y="480" width="70" height="30" as="geometry"/>
                </mxCell>
                <mxCell id="38" style="edgeStyle=none;html=1;" edge="1" parent="1" source="37">
                    <mxGeometry relative="1" as="geometry">
                        <mxPoint x="810" y="540" as="targetPoint"/>
                    </mxGeometry>
                </mxCell>
                <mxCell id="37" value="lastNewFiber" style="ellipse;whiteSpace=wrap;html=1;shadow=1;dashed=1;dashPattern=8 8;" vertex="1" parent="1">
                    <mxGeometry x="650" y="600" width="130" height="60" as="geometry"/>
                </mxCell>
                <mxCell id="40" style="edgeStyle=none;html=1;" edge="1" parent="1" source="39">
                    <mxGeometry relative="1" as="geometry">
                        <mxPoint x="410" y="530" as="targetPoint"/>
                    </mxGeometry>
                </mxCell>
                <mxCell id="39" value="firstNewFiber" style="ellipse;whiteSpace=wrap;html=1;shadow=1;dashed=1;dashPattern=8 8;" vertex="1" parent="1">
                    <mxGeometry x="250" y="570" width="110" height="60" as="geometry"/>
                </mxCell>
                <mxCell id="49" style="edgeStyle=none;html=1;entryX=0;entryY=0.25;entryDx=0;entryDy=0;" edge="1" parent="1" source="42" target="22">
                    <mxGeometry relative="1" as="geometry"/>
                </mxCell>
                <mxCell id="50" value="sibling" style="edgeLabel;html=1;align=center;verticalAlign=middle;resizable=0;points=[];" vertex="1" connectable="0" parent="49">
                    <mxGeometry x="-0.4167" relative="1" as="geometry">
                        <mxPoint x="3" as="offset"/>
                    </mxGeometry>
                </mxCell>
                <mxCell id="42" value="flags = 1" style="text;html=1;align=center;verticalAlign=middle;resizable=0;points=[];autosize=1;strokeColor=none;fillColor=none;" vertex="1" parent="1">
                    <mxGeometry x="620" y="490" width="70" height="30" as="geometry"/>
                </mxCell>
                <mxCell id="44" value="6" style="text;html=1;align=center;verticalAlign=middle;resizable=0;points=[];autosize=1;strokeColor=#6F0000;fillColor=#a20025;shadow=1;dashed=1;dashPattern=8 8;fontColor=#ffffff;" vertex="1" parent="1">
                    <mxGeometry x="544" y="510" width="30" height="30" as="geometry"/>
                </mxCell>
                <mxCell id="45" value="7" style="text;html=1;align=center;verticalAlign=middle;resizable=0;points=[];autosize=1;strokeColor=#6F0000;fillColor=#a20025;fontColor=#ffffff;" vertex="1" parent="1">
                    <mxGeometry x="630" y="430" width="30" height="30" as="geometry"/>
                </mxCell>
                <mxCell id="47" value="" style="edgeStyle=none;html=1;exitX=0.25;exitY=0;exitDx=0;exitDy=0;endArrow=none;" edge="1" parent="1" source="21" target="35">
                    <mxGeometry relative="1" as="geometry">
                        <mxPoint x="540" y="410" as="targetPoint"/>
                        <mxPoint x="620" y="480" as="sourcePoint"/>
                    </mxGeometry>
                </mxCell>
                <mxCell id="35" value="5" style="text;html=1;align=center;verticalAlign=middle;resizable=0;points=[];autosize=1;strokeColor=#6F0000;fillColor=#a20025;fontColor=#ffffff;" vertex="1" parent="1">
                    <mxGeometry x="574" y="440" width="30" height="30" as="geometry"/>
                </mxCell>
                <mxCell id="51" value="8" style="text;html=1;align=center;verticalAlign=middle;resizable=0;points=[];autosize=1;strokeColor=#6F0000;fillColor=#a20025;shadow=1;dashed=1;dashPattern=8 8;fontColor=#ffffff;" vertex="1" parent="1">
                    <mxGeometry x="720" y="505" width="30" height="30" as="geometry"/>
                </mxCell>
                <mxCell id="60" value="9" style="text;html=1;align=center;verticalAlign=middle;resizable=0;points=[];autosize=1;strokeColor=#6F0000;fillColor=#a20025;shadow=1;dashed=1;dashPattern=8 8;fontColor=#ffffff;" vertex="1" parent="1">
                    <mxGeometry x="280" y="505" width="30" height="30" as="geometry"/>
                </mxCell>
            </root>
        </mxGraphModel>
    </diagram>
</mxfile>